<svg width="90" height="90" viewBox="0 0 90 90" fill="none" xmlns="http://www.w3.org/2000/svg">
<rect width="90" height="90" rx="20" fill="#64A0E6"/>
<path d="M75 43.3333C75.0115 47.7329 73.9836 52.0729 72 56C69.6481 60.7058 66.0325 64.6639 61.5582 67.4309C57.0838 70.1979 51.9275 71.6646 46.6667 71.6666C42.2671 71.6781 37.9271 70.6502 34 68.6666L15 75L21.3333 56C19.3498 52.0729 18.3219 47.7329 18.3333 43.3333C18.3354 38.0725 19.802 32.9161 22.5691 28.4418C25.3361 23.9675 29.2942 20.3519 34 18C37.9271 16.0164 42.2671 14.9885 46.6667 15H48.3333C55.2812 15.3833 61.8435 18.3158 66.7638 23.2362C71.6841 28.1565 74.6167 34.7188 75 41.6666V43.3333Z" fill="#DCF8FE"/>
</svg>
